<mxfile host="app.diagrams.net" modified="2024-03-25T10:40:02.919Z" agent="Mozilla/5.0 (Windows NT 10.0; Win64; x64) AppleWebKit/537.36 (KHTML, like Gecko) Chrome/122.0.0.0 Safari/537.36 Edg/122.0.0.0" version="24.1.0" etag="mmTiZGdnzS_vdGy-UM2t" type="github">
  <diagram name="Page-1" id="VN3TOy5pT2lK-MjDh4yI">
    <mxGraphModel>
      <root>
        <mxCell id="0" />
        <mxCell id="1" parent="0" />
      </root>
    </mxGraphModel>
  </diagram>
</mxfile>
